normalP072_grf.mot
version=1
nRows=30
nColumns=19
inDegrees=yes
endheader
time	1_ground_force_vx	1_ground_force_vy	1_ground_force_vz	1_ground_force_px	1_ground_force_py	1_ground_force_pz	1_ground_torque_x	1_ground_torque_y	1_ground_torque_z	2_ground_force_vx	2_ground_force_vy	2_ground_force_vz	2_ground_force_px	2_ground_force_py	2_ground_force_pz	2_ground_torque_x	2_ground_torque_y	2_ground_torque_z
            2.108000	           -0.119267	            0.137501	           -0.051457	            0.333672	            0.002950	           -0.201573	           -0.014164	           -0.004673	           -0.094176	          -44.122600	          579.364407	           17.602137	            0.940323	            0.001184	           -0.306016	            0.151358	           -1.987451	           -0.060382
            2.109000	           -0.117891	            0.616592	           -0.034369	            0.333672	            0.002950	           -0.201573	           -0.148293	            0.013202	           -0.053182	          -43.785202	          576.243486	           17.581418	            0.941119	            0.001182	           -0.306050	            0.151851	           -1.998458	           -0.060974
            2.110000	           -0.134189	            0.295600	           -0.081450	            0.333672	            0.002950	           -0.201573	           -0.013886	            0.016306	            0.071745	          -43.465318	          572.241365	           17.518930	            0.942230	            0.001178	           -0.305850	            0.150085	           -1.975940	           -0.060493
            2.111000	           -0.111747	            0.137179	           -0.066771	            0.333672	            0.002950	           -0.201573	           -0.047617	            0.006368	           -0.011274	          -43.127917	          569.120729	           17.475067	            0.942973	            0.001177	           -0.305883	            0.151155	           -1.994653	           -0.061247
            2.112000	           -0.111573	            0.216778	           -0.043544	            0.333672	            0.002950	           -0.201573	           -0.131349	            0.006865	            0.050749	          -42.806086	          565.918343	           17.438701	            0.944280	            0.001173	           -0.305838	            0.149942	           -1.982313	           -0.061085
            2.113000	           -0.118957	            0.296881	           -0.050900	            0.333672	            0.002950	           -0.201573	            0.019343	            0.007308	           -0.094171	          -42.493287	          562.156358	           17.400263	            0.945307	            0.001170	           -0.305640	            0.147974	           -1.957591	           -0.060593
            2.114000	           -0.095676	            0.456599	           -0.058028	            0.333672	            0.002950	           -0.201573	           -0.148256	            0.011871	            0.029817	          -42.201707	          559.115106	           17.279944	            0.946185	            0.001167	           -0.305516	            0.148089	           -1.961977	           -0.060637
            2.115000	           -0.097088	           -0.022597	           -0.029158	            0.333672	            0.002950	           -0.201573	            0.019321	            0.001102	           -0.011135	          -41.817878	          556.152890	           17.175375	            0.947255	            0.001164	           -0.305353	            0.147777	           -1.965346	           -0.060695
            2.116000	           -0.142322	            0.216936	           -0.043563	            0.333672	            0.002950	           -0.201573	           -0.097896	            0.015648	            0.050797	          -41.581556	          552.472633	           17.090968	            0.948127	            0.001162	           -0.305348	            0.148271	           -1.969993	           -0.060943
            2.117000	           -0.103806	            0.295965	           -0.058629	            0.333672	            0.002950	           -0.201573	           -0.014033	            0.005869	            0.030197	          -41.227862	          549.750791	           16.964211	            0.949088	            0.001159	           -0.305190	            0.147605	           -1.968234	           -0.060736
            2.118000	           -0.104370	            0.137979	           -0.051555	            0.333672	            0.002950	           -0.201573	           -0.081289	            0.010817	           -0.052855	          -40.951411	          546.789927	           16.859643	            0.950192	            0.001157	           -0.305266	            0.148158	           -1.978235	           -0.060997
            2.119000	           -0.118894	            0.376536	           -0.065984	            0.333672	            0.002950	           -0.201573	           -0.030982	            0.011206	            0.009320	          -40.622273	          543.427835	           16.738208	            0.951453	            0.001153	           -0.305110	            0.146847	           -1.964461	           -0.060508
            2.120000	           -0.143276	           -0.102180	           -0.044739	            0.333672	            0.002950	           -0.201573	           -0.064465	            0.008199	            0.092405	          -40.269144	          540.466802	           16.633807	            0.952352	            0.001151	           -0.305065	            0.145787	           -1.956659	           -0.060220
            2.121000	           -0.081115	            0.217878	           -0.051266	            0.333672	            0.002950	           -0.201573	           -0.031096	            0.006055	           -0.115034	          -39.969857	          537.426027	           16.482682	            0.953152	            0.001148	           -0.304930	            0.147244	           -1.979813	           -0.060720
            2.122000	           -0.102431	            0.774748	           -0.049269	            0.333672	            0.002950	           -0.201573	            0.019246	            0.009437	            0.029922	          -39.661975	          534.784105	           16.371674	            0.954353	            0.001145	           -0.304851	            0.146636	           -1.977167	           -0.060528
            2.123000	           -0.119956	            0.058174	           -0.067237	            0.333672	            0.002950	           -0.201573	           -0.098109	           -0.002065	            0.009277	          -39.369840	          531.982928	           16.260139	            0.955345	            0.001142	           -0.304789	            0.145409	           -1.964832	           -0.060055
            2.124000	           -0.127948	           -0.022380	           -0.044550	            0.333672	            0.002950	           -0.201573	           -0.081112	            0.007842	            0.030209	          -39.032230	          528.942022	           16.093913	            0.956330	            0.001139	           -0.304718	            0.144840	           -1.962781	           -0.059721
            2.125000	           -0.074166	            0.057133	           -0.067241	            0.333672	            0.002950	           -0.201573	            0.002428	            0.006938	            0.092378	          -38.778176	          526.221293	           15.959661	            0.957139	            0.001137	           -0.304611	            0.145221	           -1.970650	           -0.059767
            2.126000	           -0.088434	            0.378232	           -0.035453	            0.333672	            0.002950	           -0.201573	           -0.098344	            0.004808	           -0.115338	          -38.461027	          524.220676	           15.820353	            0.957927	            0.001135	           -0.304652	            0.146505	           -1.996847	           -0.060262
            2.127000	           -0.105088	           -0.022209	           -0.059862	            0.333672	            0.002950	           -0.201573	            0.019191	            0.015546	            0.030285	          -38.137394	          521.739077	           15.679508	            0.959006	            0.001132	           -0.304555	            0.145011	           -1.983820	           -0.059619
            2.128000	           -0.121339	           -0.340223	           -0.045701	            0.333672	            0.002950	           -0.201573	           -0.148296	            0.013016	           -0.011277	          -37.884135	          518.698261	           15.520721	            0.959954	            0.001129	           -0.304413	            0.146165	           -2.001241	           -0.059882
            2.129000	           -0.065615	            0.376810	           -0.020165	            0.333672	            0.002950	           -0.201573	            0.002330	            0.011453	           -0.032174	          -37.552621	          516.297191	           15.403125	            0.960684	            0.001127	           -0.304270	            0.145828	           -2.004941	           -0.059815
            2.130000	           -0.104022	            0.297521	           -0.066430	            0.333672	            0.002950	           -0.201573	           -0.048071	           -0.004607	            0.029859	          -37.161155	          513.337413	           15.260208	            0.961521	            0.001125	           -0.304413	            0.145653	           -2.012023	           -0.059812
            2.131000	           -0.057563	            0.536175	           -0.050233	            0.333672	            0.002950	           -0.201573	            0.002151	            0.015042	            0.092033	          -36.897286	          511.495469	           15.106430	            0.962571	            0.001122	           -0.304245	            0.145227	           -2.013232	           -0.059458
            2.132000	           -0.126851	            0.378631	           -0.043117	            0.333672	            0.002950	           -0.201573	           -0.098480	            0.017144	           -0.073924	          -36.596027	          509.254716	           14.920253	            0.963143	            0.001120	           -0.304015	            0.145912	           -2.030451	           -0.059489
            2.133000	           -0.113535	           -0.261221	           -0.037789	            0.333672	            0.002950	           -0.201573	           -0.064634	            0.014441	            0.092411	          -36.279890	          506.854168	           14.771797	            0.963983	            0.001118	           -0.304001	            0.145759	           -2.036345	           -0.059347
            2.134000	           -0.096503	            0.296654	           -0.058787	            0.333672	            0.002950	           -0.201573	            0.019069	            0.004288	            0.071505	          -35.993781	          504.693670	           14.609032	            0.964929	            0.001116	           -0.304059	            0.146522	           -2.054483	           -0.059470
            2.135000	           -0.081693	            0.138521	           -0.036321	            0.333672	            0.002950	           -0.201573	           -0.014525	            0.018928	           -0.094304	          -35.669155	          502.612405	           14.408336	            0.965664	            0.001113	           -0.303813	            0.145176	           -2.045665	           -0.058643
            2.136000	           -0.105407	           -0.101419	           -0.044896	            0.333672	            0.002950	           -0.201573	           -0.098144	            0.010324	            0.050815	          -35.366733	          500.850600	           14.216357	            0.966618	            0.001110	           -0.303596	            0.145412	           -2.059274	           -0.058451
            2.137000	           -0.135763	           -0.021945	           -0.036962	            0.333672	            0.002950	           -0.201573	            0.018993	            0.007913	            0.071626	          -35.056677	          499.091056	           14.055250	            0.966995	            0.001109	           -0.303646	            0.145291	           -2.068462	           -0.058251
